<?xml version="1.0" encoding="utf-8"?>
<!-- Generator: Adobe Illustrator 18.1.0, SVG Export Plug-In . SVG Version: 6.00 Build 0)  -->
<svg version="1.1" id="Layer_1" xmlns="http://www.w3.org/2000/svg" xmlns:xlink="http://www.w3.org/1999/xlink" x="0px" y="0px"
	 viewBox="-255 347 100 100" enable-background="new -255 347 100 100" xml:space="preserve">
<g>
	<path fill="#3F2100" d="M-172,393.8c-4.4,0.2-8.8,1.7-8.8,1.7c-0.6-0.9-1.8-9.9-2-17c-0.1-7.5,3.1-19.4,3.1-19.4
		c-2.5-1.9-10.9-3.6-25.8-3.6c-14.9,0-19.9,2.6-19.9,2.6s2.3,12.8,2.4,19c0.1,6.2-1.9,15.7-1.9,15.7c-14.9-2.5-11.9,4.5-11.9,4.5
		c3.3,10,18,10,18,10c18.1,0,26.8-5.1,26.8-5.1c18.3,2.2,21-5.5,21-5.5C-169.4,393.7-172,393.8-172,393.8z M-192.5,379.1
		c0.2,4.7,0.2,7.4,0.7,17.1c0,0-2.3,0.2-3,0c0,0,0.7-11.6,0.7-16.5c0-4.9,0.2-6.6-0.2-19.9c0,0,1.1-0.1,2.8,0.3
		C-191.5,360.1-192.7,374.4-192.5,379.1z M-173.2,396.5c0,0-10.2,1.5-16.7,4.8h-0.2c0,0,6.2-4.2,16.3-5.8
		C-173.8,395.4-171.8,395-173.2,396.5z"/>
	<path fill="#3F2100" d="M-218.7,407.4L-218.7,407.4c0,0-3.7,0-7.8-1.3c-3.7-1.1-8.6-3.6-10.3-8.8c0,0-0.7-1.7,0.2-3.1
		c0.9-1.4,2.9-2.1,6.1-2.1c1.6,0,3.5,0.2,5.6,0.5c0.2-0.8,2-9.8,1.9-15.6c-0.1-6.1-2.4-18.8-2.4-19l0,0l0,0c0.1,0,5.2-2.6,20-2.6
		c7,0,12.9,0.4,17.6,1.1c4.1,0.6,7,1.5,8.3,2.6l0,0l0,0c0,0.1-3.2,11.9-3.1,19.3c0.1,7.1,1.3,15.8,1.9,16.9c0.5-0.2,4.7-1.5,8.8-1.7
		c0,0,0,0,0,0c0.2,0,1,0,1.3,0.6c0.3,0.5,0.3,1.4-0.2,2.5c0,0.1-0.5,1.5-2.6,3c-1.9,1.4-5.6,3-12.2,3h0c-1.9,0-4-0.1-6.2-0.4
		C-192.3,402.6-201.2,407.4-218.7,407.4L-218.7,407.4z M-230.5,392.3c-3.1,0-5.1,0.7-6,2c-0.9,1.4-0.2,3-0.2,3
		c1.7,5.2,6.5,7.6,10.2,8.7c4,1.2,7.7,1.2,7.7,1.2l0,0c17.9,0,26.7-5,26.8-5l0,0l0,0c2.2,0.3,4.3,0.4,6.2,0.4c6.6,0,10.2-1.6,12.1-3
		c2.1-1.5,2.6-2.9,2.6-2.9c0.5-1.1,0.6-1.8,0.3-2.3c-0.4-0.5-1.1-0.6-1.2-0.6h0c-4.4,0.2-8.8,1.7-8.8,1.7l0,0l0,0
		c-0.7-1-1.9-10.2-2-17c-0.1-7.2,2.9-18.6,3.1-19.3c-2.3-1.7-10.2-3.6-25.7-3.6c-14,0-19.3,2.3-19.9,2.6c0.2,0.9,2.3,13,2.4,18.9
		c0.1,6.1-1.9,15.6-1.9,15.7l0,0.1l-0.1,0C-227,392.5-228.9,392.3-230.5,392.3z M-189.9,401.3h-0.5l0.2-0.1c0.1,0,6.3-4.2,16.3-5.8
		c0,0,0.3-0.1,0.6-0.1c0.3,0,0.5,0.1,0.6,0.2c0.1,0.2-0.1,0.5-0.5,0.9l0,0l0,0C-173.3,396.5-183.5,398.1-189.9,401.3L-189.9,401.3z
		 M-173.2,395.5c-0.3,0-0.5,0.1-0.5,0.1c-8.9,1.4-14.9,4.9-16.1,5.6c6.2-3.1,16.1-4.7,16.6-4.8c0.5-0.5,0.5-0.7,0.5-0.8
		C-172.8,395.5-173,395.5-173.2,395.5z M-193.7,396.3c-0.5,0-0.9,0-1.1-0.1l-0.1,0l0-0.1c0-0.1,0.7-11.6,0.7-16.5c0-1.2,0-2.2,0-3.3
		c0-3.2,0.1-6.6-0.2-16.6l0-0.1l0.1,0c0,0,1.1-0.1,2.8,0.3l0.1,0l0,0.1c0,0.1-1.2,14.3-1,18.9c0.1,1.9,0.1,3.4,0.2,5.2
		c0.1,2.7,0.2,6,0.5,11.9l0,0.1l-0.1,0C-191.9,396.3-192.9,396.3-193.7,396.3z M-194.8,396.1c0.2,0,0.5,0.1,1,0.1
		c0.7,0,1.6-0.1,1.8-0.1c-0.3-5.9-0.4-9.2-0.5-11.9c-0.1-1.8-0.1-3.3-0.2-5.2c-0.2-4.5,0.9-17.9,1-18.9c-1.4-0.3-2.4-0.3-2.7-0.3
		c0.3,9.9,0.3,13.3,0.2,16.5c0,1.1,0,2.1,0,3.3C-194,384.4-194.7,395.3-194.8,396.1z"/>
</g>
</svg>
